<?xml version="1.0" encoding="utf-8"?>
<!-- Generator: Adobe Illustrator 25.2.1, SVG Export Plug-In . SVG Version: 6.00 Build 0)  -->
<svg version="1.1" id="Camada_1" xmlns="http://www.w3.org/2000/svg" xmlns:xlink="http://www.w3.org/1999/xlink" x="0px" y="0px"
	 viewBox="0 0 32 32" style="enable-background:new 0 0 32 32;" xml:space="preserve">
<style type="text/css">
	.st0{fill:#044A5A;}
	.st1{fill:#FBBA10;}
</style>
<g>
	<path class="st0" d="M30.1,9.3c0-4.5-3.4-4.4-6.9-4.4c-3.5,0-16.1,0-17.7,0S3.6,1.2,5.8,1.2c2.2,0,22.8,0,23.3,0
		c0,0,0.3-1.2-1.3-1.2C25.2,0,8.1,0,5.5,0S2.8,2.1,2.8,2.1V32c0,0,17.1,0,22.5,0s4.7-2.1,4.8-6.1C30.2,22,30.1,13.8,30.1,9.3z
		 M21.1,21.1c0,2.6-1.3,3.3-3.4,3.3s-6.2,0-6.2,0V13.2c0,0,2.9,0,6,0s3.6,0.8,3.6,4.4C21.1,21.1,21.1,18.5,21.1,21.1z"/>
	<polygon class="st1" points="6.1,2.9 6.1,11.8 9.1,9.8 12,11.8 12,2.9 	"/>
</g>
<g>
</g>
<g>
</g>
<g>
</g>
<g>
</g>
<g>
</g>
<g>
</g>
</svg>
