<?xml version="1.0" encoding="utf-8"?>
<!-- Generator: Adobe Illustrator 25.2.1, SVG Export Plug-In . SVG Version: 6.00 Build 0)  -->
<svg version="1.1" id="Camada_1" xmlns="http://www.w3.org/2000/svg" xmlns:xlink="http://www.w3.org/1999/xlink" x="0px" y="0px"
	 viewBox="0 0 16 16" style="enable-background:new 0 0 16 16;" xml:space="preserve">
<style type="text/css">
	.st0{fill:#044A5A;}
	.st1{fill:#FBBA10;}
</style>
<g>
	<path class="st0" d="M15.3,4.6c0-2.2-1.7-2.2-3.4-2.2c-1.7,0-8,0-8.9,0S2,0.6,3.1,0.6c1.1,0,11.4,0,11.6,0c0,0,0.1-0.6-0.7-0.6
		C12.8,0,4.3,0,3,0S1.6,1.1,1.6,1.1V16c0,0,8.5,0,11.3,0s2.3-1.1,2.4-3C15.3,11,15.3,6.9,15.3,4.6z M10.8,10.6
		c0,1.3-0.6,1.6-1.7,1.6s-3.1,0-3.1,0V6.6c0,0,1.5,0,3,0s1.8,0.4,1.8,2.2C10.8,10.6,10.8,9.3,10.8,10.6z"/>
	<polygon class="st1" points="3.3,1.5 3.3,5.9 4.8,4.9 6.2,5.9 6.2,1.5 	"/>
</g>
<g>
</g>
<g>
</g>
<g>
</g>
<g>
</g>
<g>
</g>
<g>
</g>
</svg>
