<?xml version="1.0" encoding="utf-8"?>
<!-- Generator: Adobe Illustrator 25.2.1, SVG Export Plug-In . SVG Version: 6.00 Build 0)  -->
<svg version="1.1" id="Camada_1" xmlns="http://www.w3.org/2000/svg" xmlns:xlink="http://www.w3.org/1999/xlink" x="0px" y="0px"
	 viewBox="0 0 1390.5 378.4" style="enable-background:new 0 0 1390.5 378.4;" xml:space="preserve">
<style type="text/css">
	.st0{fill:#FFFFFF;}
</style>
<g>
	<path class="st0" d="M510.5,154.7c11.3,6,20,14.4,26,25.2c6.1,10.8,9.1,23.2,9.1,37.1c0,13.8-3.1,26.1-9.2,36.9
		c-6.2,10.8-14.9,19.3-26.1,25.4c-11.3,6.2-24.4,9.2-39.2,9.2h-56.6V145.7h56.6C486.1,145.7,499.2,148.7,510.5,154.7z M495.4,244
		c6.6-6.4,9.9-15.3,9.9-27c0-11.8-3.3-20.8-9.9-27.3c-6.6-6.4-15.7-9.6-27.4-9.6h-13.8v73.4H468C479.6,253.5,488.8,250.3,495.4,244z
		"/>
	<path class="st0" d="M595.1,280.6c-11.2-6.3-20.1-15-26.7-26.1c-6.6-11.1-9.8-23.7-9.8-37.8c0-14.1,3.3-26.7,9.8-37.8
		c6.6-11.1,15.4-19.8,26.7-26c11.2-6.2,23.5-9.3,36.9-9.3c13.5,0,25.8,3.1,37,9.3c11.1,6.2,20,14.9,26.5,26
		c6.5,11.1,9.7,23.8,9.7,37.8c0,14.1-3.2,26.7-9.7,37.8s-15.3,19.9-26.6,26.1c-11.2,6.3-23.5,9.4-36.9,9.4S606.3,286.8,595.1,280.6z
		 M656,243.2c5.9-6.6,8.8-15.5,8.8-26.6c0-11.4-2.9-20.3-8.8-26.9c-5.9-6.6-13.9-9.8-24-9.8c-10.3,0-18.3,3.3-24.1,9.8
		c-5.8,6.6-8.7,15.5-8.7,26.9c0,11.2,2.9,20.1,8.7,26.7c5.8,6.6,13.8,9.8,24.1,9.8C642.1,253.1,650.1,249.8,656,243.2z"/>
	<path class="st0" d="M727,179.2c5.9-11,14.2-19.6,25-25.7c10.8-6.1,23.2-9.2,37.3-9.2c17.8,0,32.8,4.8,45,14.3
		c12.2,9.5,20,22.5,23.5,38.8H815c-2.6-5.4-6.1-9.5-10.6-12.4c-4.5-2.8-9.8-4.3-15.7-4.3c-9.2,0-16.5,3.3-22,9.8
		c-5.5,6.6-8.2,15.3-8.2,26.2c0,11.1,2.7,19.9,8.2,26.5c5.5,6.6,12.8,9.8,22,9.8c5.9,0,11.2-1.4,15.7-4.3c4.5-2.8,8.1-7,10.6-12.4
		h42.8c-3.5,16.4-11.4,29.3-23.5,38.8c-12.2,9.5-27.2,14.3-45,14.3c-14.1,0-26.5-3.1-37.3-9.2c-10.8-6.1-19.2-14.7-25-25.7
		c-5.9-11-8.8-23.6-8.8-37.8C718.1,202.8,721.1,190.2,727,179.2z"/>
	<path class="st0" d="M983.6,216.9c-4,7.1-10,12.8-18,17c-8,4.3-17.9,6.4-29.5,6.4h-19.7v48.2h-39.7V145.7H936
		c11.5,0,21.2,2,29.3,6.1c8,4.1,14.1,9.7,18.1,16.8c4.1,7.2,6.1,15.4,6.1,24.7C989.6,201.9,987.6,209.8,983.6,216.9z M949,193.3
		c0-10.4-5.6-15.6-16.8-15.6h-15.8v31h15.8C943.4,208.7,949,203.6,949,193.3z"/>
	<path class="st0" d="M1045.3,258.2h44.4v30.4h-84.1V145.7h39.7V258.2z"/>
	<path class="st0" d="M1195.5,265.2h-50.7l-7.7,23.3h-41.8l52.1-142.9h45.8l51.9,142.9h-42L1195.5,265.2z M1185.6,234.8l-15.4-46.2
		l-15.2,46.2H1185.6z"/>
	<path class="st0" d="M1390.5,288.6h-39.7l-52.9-79.9v79.9h-39.7V145.7h39.7l52.9,80.9v-80.9h39.7V288.6z"/>
</g>
<g>
	<path class="st0" d="M322.3,109.9c0-52.8-40.1-51.8-81.4-51.8c-23.7,0-82.9,0-132.7,0v81.3l-34-23.7l-35.7,23.7V58.1
		c-3.3,0-5.9,0-7.5,0c-19.5,0-21.8-44.4,4.6-44.4c26.4,0,269.5,0.5,275.2,0.5c0,0,3.4-14.3-15.5-14.3c-31,0-232.6,0-263.2,0
		C1.5,0,0,25.4,0,25.4v353c0,0,201.8,0,266.1,0c64.2,0,55-25.4,56.2-71.9C323.4,260,322.3,162.8,322.3,109.9z M216.8,249.6
		c0,30.6-14.9,38.9-40.1,38.9s-73.4,0-73.4,0V156.4c0,0,34.4,0,71.1,0s42.4,9.7,42.4,51.5S216.8,219,216.8,249.6z"/>
</g>
<g>
</g>
<g>
</g>
<g>
</g>
<g>
</g>
<g>
</g>
<g>
</g>
</svg>
